<?xml version="1.0" standalone="no"?>
<!DOCTYPE svg PUBLIC "-//W3C//DTD SVG 20010904//EN"
 "http://www.w3.org/TR/2001/REC-SVG-20010904/DTD/svg10.dtd">
<svg version="1.0" xmlns="http://www.w3.org/2000/svg"
 width="512.000000pt" height="512.000000pt" viewBox="0 0 512.000000 512.000000"
 preserveAspectRatio="xMidYMid meet">

<g transform="translate(0.000000,512.000000) scale(0.100000,-0.100000)"
fill="#000000" stroke="none">
<path d="M423 5105 c-183 -40 -343 -191 -397 -374 -21 -72 -21 -221 0 -292 36
-120 106 -219 207 -290 102 -72 177 -94 312 -93 95 1 120 5 184 28 l74 28 323
-323 c178 -178 324 -326 324 -329 0 -3 -49 -33 -108 -66 l-107 -61 -3 -312 -2
-311 -327 0 -328 0 78 78 77 77 -105 105 -105 105 -255 -255 c-140 -140 -255
-257 -255 -260 0 -11 492 -510 503 -510 6 0 58 46 114 102 l103 103 -77 77
-78 78 328 0 327 0 0 -309 0 -310 103 -60 c56 -33 107 -62 112 -65 6 -2 -136
-151 -315 -330 -255 -257 -329 -326 -345 -322 -11 3 -47 15 -80 27 -85 33
-242 33 -335 0 -167 -58 -295 -192 -344 -360 -21 -72 -21 -220 0 -292 49 -168
177 -302 344 -360 92 -33 248 -33 339 0 115 40 217 121 282 223 89 138 104
341 37 497 l-19 45 353 353 c194 194 357 353 362 353 4 0 161 -88 347 -196
l339 -196 0 -266 0 -267 -78 78 -77 77 -108 -108 -107 -107 258 -258 257 -257
260 260 260 260 -105 105 -105 105 -77 -77 -78 -78 0 265 0 265 337 195 c185
107 341 196 347 198 6 1 170 -157 364 -351 l354 -354 -28 -74 c-38 -102 -40
-251 -6 -351 71 -205 247 -344 462 -364 214 -20 430 103 524 298 208 433 -212
895 -665 732 l-72 -26 -323 323 c-178 178 -324 326 -324 329 0 3 47 33 105 65
l104 60 1 313 0 312 327 0 328 0 -78 -78 -77 -77 105 -105 105 -105 258 258
257 257 -257 257 -258 258 -105 -105 -105 -105 77 -77 78 -78 -328 0 -327 0 0
313 0 312 -105 58 c-58 32 -105 62 -105 65 0 4 146 153 324 331 l324 324 49
-20 c334 -142 709 87 740 452 7 89 -15 198 -59 286 -38 76 -142 183 -215 222
-65 34 -190 67 -258 67 -67 0 -194 -33 -254 -66 -113 -61 -209 -176 -253 -301
-34 -101 -32 -250 6 -352 l28 -74 -354 -354 c-194 -194 -358 -352 -364 -351
-7 2 -163 91 -348 198 l-336 194 0 265 0 266 78 -78 77 -77 105 105 105 105
-260 260 -260 260 -257 -257 -258 -258 107 -107 108 -108 77 77 78 78 -2 -269
-3 -268 -335 -194 c-184 -106 -340 -194 -345 -194 -6 0 -169 159 -362 353
l-353 352 27 65 c32 79 43 226 23 311 -46 198 -212 363 -407 404 -83 18 -148
18 -230 0z m224 -314 c79 -40 123 -115 123 -208 0 -74 -25 -129 -79 -174 -92
-79 -214 -78 -305 3 -52 45 -77 103 -77 174 0 175 182 285 338 205z m4015 13
c51 -17 108 -67 135 -117 12 -21 18 -55 18 -103 0 -61 -4 -77 -30 -120 -19
-30 -49 -60 -79 -79 -43 -26 -59 -30 -121 -30 -62 0 -78 4 -121 30 -30 19 -60
49 -79 79 -26 43 -30 59 -30 120 1 81 15 116 71 170 63 61 150 80 236 50z
m-1654 -1309 c363 -209 430 -252 417 -262 -34 -24 -860 -498 -866 -496 -3 1
-202 115 -442 254 l-437 252 398 229 c218 126 415 240 437 253 22 14 45 23 51
22 5 -1 205 -114 442 -252z m-970 -805 l372 -215 0 -508 c0 -286 -4 -507 -9
-505 -5 2 -203 115 -440 252 l-431 249 0 509 0 510 68 -39 c38 -21 236 -135
440 -253z m1545 -731 c-10 -10 -837 -487 -858 -495 -14 -6 -15 44 -13 502 l3
508 435 252 435 251 3 -505 c1 -278 -1 -509 -5 -513z m-2948 -1213 c88 -40
135 -114 135 -211 0 -97 -47 -171 -135 -211 -87 -41 -176 -27 -249 38 -105 91
-104 260 2 348 75 64 161 76 247 36z m4073 -13 c28 -17 59 -48 77 -77 26 -43
30 -59 30 -121 0 -62 -4 -78 -30 -121 -19 -30 -49 -60 -79 -79 -43 -26 -59
-30 -121 -30 -62 0 -78 4 -121 30 -30 19 -60 49 -79 79 -26 43 -30 59 -30 120
0 59 4 79 28 118 67 114 213 151 325 81z"/>
</g>
</svg>
