<?xml version="1.0" standalone="no"?>
<!DOCTYPE svg PUBLIC "-//W3C//DTD SVG 20010904//EN"
 "http://www.w3.org/TR/2001/REC-SVG-20010904/DTD/svg10.dtd">
<svg version="1.0" xmlns="http://www.w3.org/2000/svg"
 width="367.000000pt" height="137.000000pt" viewBox="0 0 367.000000 137.000000"
 preserveAspectRatio="xMidYMid meet">
<metadata>
Created by potrace 1.16, written by Peter Selinger 2001-2019
</metadata>
<g transform="translate(0.000000,137.000000) scale(0.100000,-0.100000)"
fill="#000000" stroke="none">
<path d="M1677 1359 c-313 -33 -602 -282 -682 -587 -20 -78 -20 -249 0 -326
49 -187 207 -348 400 -409 57 -18 93 -22 195 -22 148 1 217 16 340 77 70 35
102 60 185 143 55 55 112 121 125 148 25 47 40 60 40 33 0 -7 16 -46 36 -85
65 -130 206 -245 359 -294 59 -19 92 -22 215 -22 137 1 150 3 240 33 124 43
215 98 308 186 94 89 164 194 199 300 22 69 26 99 27 206 1 140 -13 202 -67
305 -62 117 -206 232 -347 276 -187 58 -463 17 -645 -96 -123 -76 -251 -228
-305 -359 l-22 -56 -288 0 c-159 0 -296 -3 -305 -6 -15 -6 -82 -131 -115 -213
-22 -56 -6 -61 197 -61 l174 0 -12 -21 c-20 -38 -97 -106 -146 -131 -67 -32
-218 -33 -278 -1 -51 27 -96 75 -126 133 -32 63 -32 190 0 272 45 117 184 226
310 243 86 12 185 -26 252 -97 l26 -27 166 44 c91 24 171 46 177 50 20 12 -51
127 -125 200 -133 133 -297 186 -508 164z m1447 -356 c68 -22 136 -91 166
-169 47 -124 4 -283 -101 -378 -64 -58 -155 -103 -225 -112 -121 -15 -248 50
-308 156 -28 50 -31 63 -31 140 0 74 4 93 31 150 45 93 93 143 177 185 115 57
181 63 291 28z"/>
<path d="M296 992 l-27 -29 83 -6 c46 -4 194 -7 330 -7 l247 0 20 26 c12 15
21 31 21 35 0 5 -145 9 -323 9 l-323 0 -28 -28z"/>
<path d="M25 828 l-28 -33 429 -3 c398 -2 430 -1 442 15 7 10 11 24 10 33 -3
13 -56 15 -415 18 l-411 2 -27 -32z"/>
<path d="M447 660 l-18 -30 205 0 206 0 0 30 0 30 -188 0 -188 0 -17 -30z"/>
</g>
</svg>
